<svg xmlns="http://www.w3.org/2000/svg" viewBox="0 0 180 44" role="img" aria-label="Google Pay logo">
  <rect width="180" height="44" rx="12" fill="none"/>
  <g transform="translate(8 7)">
    <path d="M16 1.5c3.6 0 6.5 1.2 8.8 3.5l-4.1 4.1c-1.2-1.2-2.8-1.8-4.7-1.8-4.1 0-7.5 3.4-7.5 7.5s3.4 7.5 7.5 7.5c3.2 0 5.1-1.4 6.1-3.3H16v-5.3h12.7c.2 1 .3 1.9.3 3 0 7-4.7 12.4-13 12.4C6.9 29.1 1 23.4 1 16S6.9 2.9 16 2.9z" fill="#4285f4"/>
    <path d="M34.4 4.6h7.8c4.5 0 7.7 2.8 7.7 7s-3.2 7-7.7 7h-3.8v8h-4V4.6zm4 10.5h3.7c2.1 0 3.5-1 3.5-3.1s-1.4-3.1-3.5-3.1h-3.7v6.2z" fill="#34a853"/>
    <path d="M61.8 4.6h7.2l8.7 22h-4.5l-1.8-4.8h-11l-1.8 4.8H54l7.8-22zm-1 13.9h7.5l-3.7-10-3.8 10z" fill="#fbbc05"/>
    <path d="M82 4.6h4.6l5.4 8.6 5.4-8.6H102l-7.9 12.1V26.6h-4.2V16.7L82 4.6z" fill="#ea4335"/>
  </g>
  <text x="114" y="28" font-family="Arial, Helvetica, sans-serif" font-size="14" font-weight="700" fill="#111827">Google Pay</text>
</svg>
