<svg xmlns="http://www.w3.org/2000/svg" viewBox="0 0 160 44" role="img" aria-label="Paytm logo">
  <rect width="160" height="44" rx="12" fill="none"/>
  <rect x="2" y="2" width="156" height="40" rx="10" fill="#ffffff" fill-opacity="0"/>
  <g fill="#00baf2">
    <path d="M16 11h10.5c4.1 0 7 2.6 7 6.4s-2.9 6.4-7 6.4H22V33h-6V11zm6 8h3.8c1.9 0 3.2-1 3.2-2.6s-1.3-2.6-3.2-2.6H22v5.2z"/>
    <path d="M40 18h5.4v2.1h.1c1-1.5 2.6-2.5 4.8-2.5 3.8 0 6.3 2.8 6.3 6.9V33h-5.6v-7.6c0-2.1-1.1-3.4-3-3.4s-3.1 1.3-3.1 3.4V33H40V18z"/>
    <path d="M62 11h5.6v6H72v4.6h-4.4v5.1c0 1.3.6 1.8 1.9 1.8h2.4V33h-3.7c-3.8 0-5.2-1.5-5.2-5V21.6H59V17h3V11z"/>
    <path d="M78.8 18H84l2.9 9.9L89.8 18h4.4l2.8 9.9L99.8 18h5.3l-5.4 15h-5l-2.5-8.8L89.6 33h-5l-5.8-15z"/>
  </g>
  <g fill="#00baf2">
    <rect x="118" y="14" width="8" height="16" rx="4"/>
    <rect x="130" y="14" width="8" height="16" rx="4"/>
  </g>
  <text x="117" y="31" font-family="Arial, Helvetica, sans-serif" font-size="14" font-weight="700" fill="#0f172a">tm</text>
</svg>
