<svg xmlns="http://www.w3.org/2000/svg" viewBox="0 0 24 24" aria-hidden="true">
  <path d="M12 2a10 10 0 0 0-8.73 14.88L2 22l5.29-1.22A10 10 0 1 0 12 2Zm0 18a8 8 0 0 1-4.06-1.1l-.4-.24-3.13.72.74-3.05-.26-.42A8 8 0 1 1 12 20Zm4.37-5.63c-.24-.12-1.42-.7-1.64-.78-.22-.08-.38-.12-.55.12-.16.24-.63.78-.77.94-.14.16-.28.18-.52.06-.24-.12-1-.37-1.9-1.19-.7-.62-1.18-1.39-1.32-1.62-.14-.24-.02-.37.1-.49.1-.1.24-.26.35-.39.12-.14.16-.24.24-.4.08-.16.04-.3-.02-.42-.06-.12-.55-1.32-.76-1.8-.2-.47-.4-.4-.55-.4h-.47c-.16 0-.42.06-.64.3-.22.24-.84.82-.84 2s.86 2.32.98 2.48c.12.16 1.7 2.6 4.13 3.65.58.25 1.03.4 1.38.51.58.18 1.1.15 1.52.09.46-.07 1.42-.58 1.62-1.14.2-.56.2-1.04.14-1.14-.06-.1-.22-.16-.46-.28Z"/>
</svg>
